<?xml version="1.0" standalone="no"?>
<!DOCTYPE svg PUBLIC "-//W3C//DTD SVG 20010904//EN"
 "http://www.w3.org/TR/2001/REC-SVG-20010904/DTD/svg10.dtd">
<svg version="1.0" xmlns="http://www.w3.org/2000/svg"
 width="200.000000pt" height="46.000000pt" viewBox="0 0 200.000000 46.000000"
 preserveAspectRatio="xMidYMid meet">

<g transform="translate(0.000000,46.000000) scale(0.100000,-0.100000)"
fill="#000000" stroke="none">
<path d="M22 238 c3 -88 4 -93 26 -96 21 -3 22 -1 22 92 l0 96 -25 0 -26 0 3
-92z"/>
<path d="M402 308 c-7 -7 -12 -43 -12 -91 0 -76 1 -78 23 -75 18 2 23 11 27
50 l5 48 59 -51 c80 -68 90 -64 94 39 3 80 2 82 -21 82 -20 0 -23 -4 -19 -35
8 -70 -3 -71 -72 -11 -35 31 -65 56 -68 56 -2 0 -9 -5 -16 -12z"/>
<path d="M696 305 c-56 -20 -76 -58 -57 -108 15 -40 71 -61 144 -54 72 6 107
34 107 83 0 43 -27 73 -75 84 -53 13 -73 12 -119 -5z m135 -41 c13 -8 11 -58
-3 -72 -7 -7 -38 -12 -70 -12 -52 0 -60 3 -70 24 -22 50 16 79 90 71 24 -3 48
-7 53 -11z"/>
<path d="M1604 298 c-21 -24 -94 -123 -108 -146 -5 -8 1 -12 21 -12 23 0 36
12 72 60 l44 61 23 -35 c13 -19 24 -37 24 -40 0 -4 -17 -6 -38 -6 -26 0 -41
-6 -50 -20 -12 -19 -10 -20 83 -20 52 0 95 2 95 5 0 14 -112 164 -126 169 -21
8 -18 9 -40 -16z"/>
<path d="M932 298 c-20 -20 -14 -28 23 -28 l34 0 3 -62 c3 -57 5 -63 26 -66
21 -3 22 0 22 62 l0 66 33 0 c31 0 57 14 57 32 0 13 -184 10 -198 -4z"/>
<path d="M1170 225 c0 -84 0 -85 25 -85 25 0 25 1 25 85 0 84 0 85 -25 85 -25
0 -25 -1 -25 -85z"/>
<path d="M1279 281 c-36 -37 -37 -62 -1 -102 24 -27 36 -32 95 -36 46 -4 71
-2 82 7 28 23 15 30 -54 30 -89 0 -117 22 -91 71 9 16 22 19 75 19 54 0 66 3
75 20 10 19 8 20 -70 20 -77 0 -83 -2 -111 -29z"/>
<path d="M1807 228 l1 -83 72 -3 c68 -3 100 7 100 29 0 4 -28 9 -62 11 l-63 3
-3 63 c-3 56 -5 62 -25 62 -21 0 -22 -4 -20 -82z"/>
<path d="M1823 65 c0 -22 2 -30 4 -17 2 12 2 30 0 40 -3 9 -5 -1 -4 -23z"/>
<path d="M1620 67 c0 -14 4 -28 8 -31 9 -5 8 41 -1 51 -4 3 -7 -5 -7 -20z"/>
<path d="M1902 60 c0 -19 2 -27 5 -17 2 9 2 25 0 35 -3 9 -5 1 -5 -18z"/>
<path d="M1882 55 c0 -16 2 -22 5 -12 2 9 2 23 0 30 -3 6 -5 -1 -5 -18z"/>
</g>
</svg>
